<?xml version="1.0" encoding="UTF-8" standalone="no"?>
<!DOCTYPE svg PUBLIC "-//W3C//DTD SVG 1.1//EN" "http://www.w3.org/Graphics/SVG/1.1/DTD/svg11.dtd">
<svg width="100%" height="100%" viewBox="0 0 2689 728" version="1.1" xmlns="http://www.w3.org/2000/svg" xmlns:xlink="http://www.w3.org/1999/xlink" xml:space="preserve" xmlns:serif="http://www.serif.com/" style="fill-rule:evenodd;clip-rule:evenodd;stroke-linejoin:round;stroke-miterlimit:2;">
    <g transform="matrix(41.720911,0,0,41.72582,818.703121,370.829808)">
        <g transform="matrix(11.732435,0,0,11.732435,44.067024,0)">
        </g>
        <text x="0px" y="0px" style="font-family:'Montserrat-SemiBold', 'Montserrat';font-weight:600;font-size:11.732px;fill:rgb(0,113,178);">P<tspan x="8.635px 18.373px 27.395px 36.206px " y="0px 0px 0px 0px ">HARE</tspan></text>
    </g>
    <g transform="matrix(1.833991,0,0,1.83565,954.503615,493.591781)">
        <text x="78.811px" y="58.726px" style="font-family:'Montserrat-Bold', 'Montserrat';font-weight:700;font-size:58.726px;fill:rgb(0,113,178);">P</text>
        <text x="122.973px" y="58.726px" style="font-family:'Montserrat-Regular', 'Montserrat';font-size:58.726px;">h<tspan x="163.846px 199.668px 223.922px 287.404px 323.227px 356.994px 373.966px " y="58.726px 58.726px 58.726px 58.726px 58.726px 58.726px 58.726px ">armacie</tspan></text>
        <text x="427.171px" y="58.726px" style="font-family:'Montserrat-Bold', 'Montserrat';font-weight:700;font-size:58.726px;fill:rgb(0,113,178);">H</text>
        <text x="475.796px" y="58.726px" style="font-family:'Montserrat-Regular', 'Montserrat';font-size:58.726px;">o<tspan x="513.791px 543.624px 584.614px 601.057px 624.9px 660.723px 677.694px 694.666px 731.311px 755.271px " y="58.726px 58.726px 58.726px 58.726px 58.726px 58.726px 58.726px 58.726px 58.726px 58.726px ">spitalière</tspan></text>
        <text x="-70.234px" y="117.451px" style="font-family:'Montserrat-Bold', 'Montserrat';font-weight:700;font-size:58.726px;fill:rgb(0,113,178);">A</text>
        <text x="-24.076px" y="117.451px" style="font-family:'Montserrat-Regular', 'Montserrat';font-size:58.726px;">t<tspan x="0.941px 17.913px 53.735px 83.568px 100.128px 141.119px 177.764px " y="117.451px 117.451px 117.451px 117.451px 117.451px 117.451px 117.451px ">las des</tspan></text>
        <text x="224.157px" y="117.451px" style="font-family:'Montserrat-Bold', 'Montserrat';font-weight:700;font-size:58.726px;fill:rgb(0,113,178);">R</text>
        <text x="268.495px" y="117.451px" style="font-family:'Montserrat-Regular', 'Montserrat';font-size:58.726px;">e<tspan x="305.139px 334.972px 364.804px 402.8px 443.438px 467.398px 501.106px 537.751px " y="117.451px 117.451px 117.451px 117.451px 117.451px 117.451px 117.451px 117.451px ">ssources</tspan></text>
        <text x="584.144px" y="117.451px" style="font-family:'Montserrat-Bold', 'Montserrat';font-weight:700;font-size:58.726px;fill:rgb(0,113,178);">E</text>
        <g transform="matrix(58.725551,0,0,58.725551,939.786342,117.451102)">
        </g>
        <text x="624.724px" y="117.451px" style="font-family:'Montserrat-Regular', 'Montserrat';font-size:58.726px;">s<tspan x="654.556px 684.389px 721.034px 761.907px 786.924px 803.895px 840.54px 857.512px 874.484px 911.128px " y="117.451px 117.451px 117.451px 117.451px 117.451px 117.451px 117.451px 117.451px 117.451px 117.451px ">sentielles</tspan></text>
    </g>
    <g transform="matrix(6.289911,0,0,8.333333,-238.097632,-846.333333)">
        <path d="M170.177,155.186L461.649,155.186" style="fill:none;stroke:black;stroke-width:0.85px;"/>
    </g>
    <g transform="matrix(-0.000087,0.807334,-0.680572,-0.000073,445.524512,71.427958)">
        <path d="M58.3,307.81L58.302,331.142C58.302,333.316 57.304,335.318 55.697,336.365C54.091,337.412 52.131,337.338 50.584,336.172L-34.833,271.781C-36.283,270.687 -37.162,268.79 -37.162,266.752L-37.174,136.015L-57.261,136.015C-66.621,136.015 -74.208,127.014 -74.208,115.91L-74.208,115.119C-74.208,104.016 -66.621,95.015 -57.261,95.015L-37.178,95.015L-37.19,-35.698C-37.19,-37.737 -36.312,-39.634 -34.861,-40.728L50.544,-105.141C52.091,-106.307 54.051,-106.382 55.657,-105.335C57.264,-104.289 58.263,-102.287 58.263,-100.112L58.265,-76.809L165.244,-76.809L165.242,-98.674C165.242,-100.383 165.814,-102.022 166.833,-103.231C167.851,-104.44 169.233,-105.119 170.674,-105.119L214.122,-105.124C215.562,-105.125 216.944,-104.446 217.963,-103.237C218.692,-102.373 219.192,-101.288 219.418,-100.115L249.675,-39.389L783.824,-94.894C786.813,-95.204 789.448,-92.582 789.71,-89.036L791.778,-61.032C792.039,-57.486 789.829,-54.361 786.84,-54.05L648.847,-39.711L720.83,278.831L786.871,285.676C789.86,285.986 792.071,289.112 791.81,292.657L789.747,320.662C789.486,324.207 786.851,326.831 783.862,326.521L249.309,271.111L219.472,331.023C219.254,332.227 218.748,333.342 218.003,334.226C216.984,335.434 215.602,336.114 214.162,336.114L170.714,336.119C169.273,336.119 167.891,335.441 166.872,334.232C165.854,333.024 165.281,331.385 165.281,329.676L165.279,307.81L58.3,307.81ZM58.284,136L58.296,266.81L165.275,266.81L165.263,136L58.284,136ZM165.26,95L165.248,-35.809L58.269,-35.809L58.28,95L165.26,95ZM306.959,-4.184L249.189,1.819L249.209,229.945L362.521,241.69L306.959,-4.184ZM537.857,-28.177L417.949,-15.717L478.842,253.748L604.509,266.774L537.857,-28.177ZM105.349,-125.04C105.209,-123.323 103.993,-122.013 102.539,-122.013C101.085,-122.013 99.868,-123.323 99.728,-125.04L78.2,-388.637C78.064,-390.306 78.528,-391.965 79.478,-393.207C80.428,-394.448 81.775,-395.156 83.189,-395.157L121.84,-395.162C123.253,-395.162 124.601,-394.454 125.551,-393.213C126.501,-391.971 126.966,-390.312 126.83,-388.643L105.349,-125.04ZM132.591,-125.624C131.959,-123.695 130.196,-122.65 128.516,-123.21C126.836,-123.771 125.79,-125.753 126.098,-127.79L148.025,-272.656C148.271,-274.276 149.081,-275.698 150.257,-276.572C151.433,-277.446 152.866,-277.69 154.202,-277.244L174.274,-270.548C175.61,-270.103 176.725,-269.009 177.345,-267.536C177.965,-266.063 178.031,-264.348 177.529,-262.814L132.591,-125.624ZM105.393,355.594L126.921,619.191C127.058,620.86 126.594,622.519 125.644,623.761C124.694,625.002 123.346,625.71 121.932,625.711L83.281,625.716C81.868,625.716 80.52,625.008 79.57,623.767C78.62,622.525 78.155,620.866 78.291,619.197L99.772,355.594C99.912,353.877 101.128,352.567 102.582,352.567C104.036,352.567 105.253,353.877 105.393,355.594ZM132.635,356.17L177.598,493.349C178.1,494.883 178.034,496.598 177.414,498.071C176.795,499.544 175.68,500.638 174.344,501.084L154.273,507.785C152.937,508.231 151.505,507.987 150.328,507.114C149.152,506.241 148.341,504.819 148.096,503.198L126.142,358.338C125.833,356.301 126.879,354.319 128.559,353.758C130.239,353.197 132.003,354.241 132.635,356.17Z" style="fill:rgb(0,113,178);"/>
    </g>
</svg>
